<svg enable-background="new 0 0 369.5 58.3" viewBox="0 0 369.5 58.3" xmlns="http://www.w3.org/2000/svg"><path d="m31.5 10.8c-10.1 0-17.6 1.8-17.6 1.8v23.1c0 12 15 12.2 17.2 14.4 2.2-2.2 17-2.4 17.1-14.4v-23.1c-.1 0-6.6-1.8-16.7-1.8z" fill="#fff"/><path d="m19.5 17.3v17.7c0 7.8 10.2 7.9 11.6 9.4 1.5-1.5 11.6-1.6 11.6-9.4v-17.7s-3-.9-11.6-.9c-8.7 0-11.6.9-11.6.9z" fill="#f6c32b"/><g fill="#14589b"><path d="m43.8 35.5c0 8.1-11.1 8.4-12.7 10-1.6-1.6-12.7-1.9-12.7-10v-19.2s3.2-1 12.7-1c9.4 0 12.7 1 12.7 1zm-12.3-23.9c-9.6 0-16.8 1.7-16.8 1.7v22.2c0 11.5 14.3 11.7 16.4 13.8 2.1-2.1 16.2-2.3 16.3-13.8v-22.2c-.1 0-6.3-1.7-15.9-1.7z"/><path d="m41.7 17.1-2.7 1.1-3.5 8.8c-1.4-.1-2.9-.1-4.3-.1-.7 0-1.4 0-2.1 0l4.4-10.4c-.8 0-1.6 0-2.3 0l-2.8 1.2-5.5 13.3c.9-.1 2.3-.2 3.4-.2l-4.1 2-2.1 5.1c.6 1.5 1.7 2.6 3.1 3.5l4.4-10.7c1.1 0 2.3-.1 3.6-.1 2 0 3.8.1 5.4.2l-3.4 1.6-4.6 11.1c1 .3 2.1.6 2.5 1 .4-.4 1.5-.7 2.1-.9l9.5-22.9v-3.3c-.4-.2-.6-.3-1-.3z"/><path d="m146.1 26.9c-1.9-1-3.7-2.3-3.7-4.9 0-2.4 2.2-3.6 4.5-3.6 1.6 0 5.9.7 6.4 4.6v-4.2c-1.6-1.3-4.2-2.1-6.3-2.1-3.4 0-7.5 2.1-7.5 6.5 0 5.4 5 6.6 8.5 8.5 1.9 1 3.7 2.3 3.7 4.9 0 2.5-2.2 4.3-5.4 4.3-2.2 0-6.6-1.1-7.8-5.4v4.5c2.3 1.8 4.6 2.7 7.9 2.7 4.3 0 8.3-2.6 8.3-7.4.1-5.4-5-6.6-8.6-8.4zm84 13.9-11-24.5-10.9 24.4s-.5 1.2-1.6 1.6c-3.8-1-5.5-11.6-11.4-11.6 3.1-1 6.1-3.5 6.1-6.9 0-3.5-3-6.9-9.2-6.9 0 0-1.4 0-3 0-1.4 0-2.6 0-3.2 0h-1.6c1.6 0 1.6 1.6 1.6 1.6v22.2s0 1.6-1.6 1.6h1.6 3.2 1.6c-1.6 0-1.6-1.6-1.6-1.6v-9.4c11.8 0 8.4 11 14.4 11h2.5 1.2 3.6c-1.7 0-.8-1.7-.8-1.7l3.1-7h10.2c1 2.3 2 4.8 2.9 7 .2.6.7 1.7-1.2 1.7h7.5c-1.8.1-2.4-1.5-2.4-1.5zm-41-22.1h1.5c5.6 0 7.3 2.6 7.3 5.4 0 3.3-2.1 6-8.8 6zm24.7 13.3 4.3-10.2c.6 1.5 2.6 6.2 4.4 10.2zm-56-13.4v1.6s0-1.6 1.6-1.6h7.4v22.2s0 1.6-1.6 1.6h1.6 3.6 1.6c-1.6 0-1.6-1.6-1.6-1.6v-22.2h8c1.6 0 1.6 1.6 1.6 1.6v-1.6-1.6h-22.2zm-58.8-1.9c-8.6 0-14.4 6.2-14.4 13.3 0 8.3 6.5 12.7 14.5 12.7s14.3-4.7 14.3-13c-.1-7-5.7-13-14.4-13zm0 24.4c-5.9 0-10.4-4.6-10.4-11 0-5.5 3.2-11.6 10.4-11.6s10.3 5.8 10.3 11.3c0 6.5-4.4 11.3-10.3 11.3zm18.5-24.1c1.6 0 1.6 1.6 1.6 1.6v22.2s0 1.6-1.6 1.6h1.6 3.4 1.6c-1.6 0-1.6-1.5-1.6-1.6v-10.2h8.2c1.6 0 1.6 1.6 1.6 1.6v-1.6-1.8-1.6s0 1.6-1.6 1.6h-8.1v-10.2h9.9c1.6 0 1.6 1.6 1.6 1.6v-1.6-1.6h-15zm-37 0h-1.6s-2.3 0-3.6 0h-1.6c1.6 0 1.6 1.6 1.6 1.6v10.2h-13.4c0-2.7 0-6.7 0-10.2 0 0 0-1.6 1.6-1.6h-1.6-3.5-1.6c1.6 0 1.6 1.6 1.6 1.6v22.2s0 1.6-1.6 1.6h1.6 3.5 1.6c-1.6 0-1.6-1.6-1.6-1.6v-10.3h13.4v10.4s0 1.6-1.6 1.6h1.6 3.6 1.6c-1.6 0-1.6-1.6-1.6-1.6v-22.3s0-1.6 1.6-1.6z"/><path d="m234.2 37.3c1.4 0 2.6 1.2 2.6 2.6 0 1.5-1.1 2.6-2.6 2.6-1.4 0-2.6-1.2-2.6-2.6s1.1-2.6 2.6-2.6zm0 .4c-1.2 0-2.1 1-2.1 2.2s.9 2.2 2.1 2.2 2.1-1 2.1-2.2-.9-2.2-2.1-2.2zm-.5 3.8h-.5v-2.9c.2 0 .5-.1.8-.1.4 0 .7.1.9.2s.3.3.3.6c0 .4-.3.6-.6.7.3 0 .4.3.5.7.1.5.1.6.2.7h-.5c-.1-.1-.1-.4-.2-.7-.1-.4-.3-.5-.6-.5h-.3zm0-1.7h.3c.4 0 .7-.1.7-.5 0-.3-.2-.5-.7-.5-.1 0-.3 0-.3 0z"/><path d="m261.1 19.2c-.4-.4-.8-.7-1.2-.9-.4-.1-.8-.2-1.2-.2-.6 0-1.1.1-1.6.3s-.9.5-1.2.8c-.3.4-.6.8-.8 1.3s-.3 1-.3 1.6.1 1.1.3 1.7.4.9.8 1.3c.3.4.7.7 1.2.9s1 .3 1.6.3c.5 0 .9-.1 1.3-.3s.8-.6 1.2-1l1.6 1.2c-.5.7-1.1 1.2-1.8 1.5s-1.5.5-2.3.5c-.9 0-1.6-.1-2.4-.4-.7-.3-1.3-.7-1.9-1.2-.5-.5-.9-1.1-1.2-1.8s-.4-1.5-.4-2.4.1-1.7.4-2.4.7-1.4 1.2-1.9 1.1-.9 1.9-1.2c.7-.3 1.5-.4 2.4-.4.8 0 1.5.1 2.1.4s1.2.7 1.8 1.4z"/><path d="m263.7 22.2c0-.9.1-1.7.4-2.4s.7-1.4 1.2-1.9 1.1-.9 1.9-1.2c.7-.3 1.5-.4 2.4-.4s1.7.1 2.4.4 1.3.7 1.9 1.2c.5.5.9 1.1 1.2 1.9.3.7.4 1.5.4 2.4s-.1 1.7-.4 2.4-.7 1.3-1.2 1.8-1.1.9-1.9 1.2c-.7.3-1.5.4-2.4.4s-1.6-.1-2.4-.4c-.7-.3-1.3-.7-1.9-1.2-.5-.5-.9-1.1-1.2-1.8s-.4-1.5-.4-2.4zm2.1-.1c0 .6.1 1.1.3 1.7s.4.9.8 1.3c.3.4.7.7 1.2.9s1 .3 1.6.3 1.1-.1 1.6-.3.9-.5 1.2-.9.6-.8.8-1.3.3-1.1.3-1.7-.1-1.1-.3-1.6-.4-.9-.8-1.3c-.3-.4-.7-.6-1.2-.8s-1-.3-1.6-.3-1.1.1-1.6.3-.9.5-1.2.8c-.3.4-.6.8-.8 1.3-.3.5-.3 1-.3 1.6z"/><path d="m277.4 16.6h2.6l5.4 8.3v-8.3h2v11.1h-2.5l-5.5-8.5v8.5h-2z"/><path d="m292.2 18.4h-3.4v-1.8h8.8v1.8h-3.4v9.3h-2z"/><path d="m298.9 16.6h2v11.1h-2z"/><path d="m303.3 16.6h2.6l5.4 8.3v-8.3h2v11.1h-2.5l-5.5-8.5v8.5h-2z"/><path d="m324.7 23.7c0 .7-.1 1.3-.3 1.8s-.5 1-.9 1.4-.9.7-1.4.9-1.1.3-1.8.3c-.6 0-1.2-.1-1.8-.3-.5-.2-1-.5-1.4-.9s-.7-.8-.9-1.4c-.2-.5-.3-1.1-.3-1.8v-7h2v7c0 .3 0 .6.1.9s.2.6.4.8c.2.3.5.5.8.6.3.2.7.2 1.2.2s.9-.1 1.2-.2c.3-.2.6-.4.8-.6.2-.3.3-.5.4-.8s.1-.6.1-.9v-7h2v7z"/><path d="m327.1 16.6h2v11.1h-2z"/><path d="m331.5 16.6h2.6l5.4 8.3v-8.3h2v11.1h-2.5l-5.5-8.5v8.5h-2z"/><path d="m354 26.9c-1.4.7-2.9 1.1-4.6 1.1-.9 0-1.6-.1-2.4-.4-.7-.3-1.3-.7-1.9-1.2-.5-.5-.9-1.1-1.2-1.8s-.4-1.5-.4-2.4.1-1.7.4-2.4.7-1.4 1.2-1.9 1.1-.9 1.9-1.2c.7-.3 1.5-.4 2.4-.4.8 0 1.6.1 2.4.3.7.2 1.4.6 2 1.1l-1.5 1.5c-.4-.3-.8-.6-1.3-.8s-1-.3-1.6-.3-1.1.1-1.6.3-.9.5-1.2.8c-.3.4-.6.8-.8 1.3s-.3 1-.3 1.6.1 1.1.3 1.7c.2.5.4.9.8 1.3.3.4.7.7 1.2.9s1 .3 1.6.3c.5 0 1 0 1.4-.1s.8-.2 1.2-.4v-2.8h-2.3v-1.8h4.3z"/><path d="m253.5 31.3h7.4v1.8h-5.4v2.7h5.1v1.8h-5.1v3h5.7v1.8h-7.7z"/><path d="m263.1 31.3h4.4c.7 0 1.4.1 2.1.3s1.3.6 1.8 1c.5.5.9 1 1.3 1.7.3.7.5 1.5.5 2.5s-.2 1.8-.5 2.5c-.4.7-.8 1.3-1.4 1.7-.6.5-1.2.8-1.9 1s-1.4.3-2.1.3h-4.2zm3.5 9.3c.6 0 1.2-.1 1.8-.2s1-.4 1.4-.7.7-.7 1-1.2c.2-.5.4-1.1.4-1.7 0-.7-.1-1.2-.3-1.7s-.5-.9-.9-1.2-.8-.5-1.3-.7c-.5-.1-1.1-.2-1.7-.2h-1.8v7.6z"/><path d="m284 38.3c0 .7-.1 1.3-.3 1.8s-.5 1-.9 1.4-.9.7-1.4.9-1.1.3-1.8.3c-.6 0-1.2-.1-1.8-.3-.5-.2-1-.5-1.4-.9s-.7-.8-.9-1.4c-.2-.5-.3-1.1-.3-1.8v-7h2v7c0 .3 0 .6.1.9s.2.6.4.8c.2.3.5.5.8.6.3.2.7.2 1.2.2s.9-.1 1.2-.2c.3-.2.6-.4.8-.6.2-.3.3-.5.4-.8s.1-.6.1-.9v-7h2v7z"/><path d="m294 33.9c-.4-.4-.8-.7-1.2-.9-.4-.1-.8-.2-1.2-.2-.6 0-1.1.1-1.6.3s-.9.5-1.2.8c-.3.4-.6.8-.8 1.3s-.3 1-.3 1.6.1 1.1.3 1.7c.2.5.4.9.8 1.3.3.4.7.7 1.2.9s1 .3 1.6.3c.5 0 .9-.1 1.3-.3s.8-.6 1.2-1l1.6 1.2c-.5.7-1.1 1.2-1.8 1.5s-1.5.5-2.3.5c-.9 0-1.6-.1-2.4-.4-.7-.3-1.3-.7-1.9-1.2-.5-.5-.9-1.1-1.2-1.8s-.4-1.5-.4-2.4.1-1.7.4-2.4.7-1.4 1.2-1.9 1.1-.9 1.9-1.2c.7-.3 1.5-.4 2.4-.4.8 0 1.5.1 2.1.4s1.2.7 1.8 1.4z"/><path d="m300.8 31.3h1.7l4.8 11.1h-2.3l-1-2.5h-4.8l-1 2.5h-2.2zm2.5 6.9-1.7-4.5-1.7 4.5z"/><path d="m309.4 33.1h-3.4v-1.8h8.8v1.8h-3.4v9.3h-2z"/><path d="m316.1 31.3h2v11.1h-2z"/><path d="m319.9 36.9c0-.9.1-1.7.4-2.4s.7-1.4 1.2-1.9 1.1-.9 1.9-1.2c.7-.3 1.5-.4 2.4-.4s1.7.1 2.4.4 1.3.7 1.9 1.2c.5.5.9 1.1 1.2 1.9.3.7.4 1.5.4 2.4s-.1 1.7-.4 2.4-.7 1.3-1.2 1.8-1.1.9-1.9 1.2c-.7.3-1.5.4-2.4.4s-1.6-.1-2.4-.4c-.7-.3-1.3-.7-1.9-1.2-.5-.5-.9-1.1-1.2-1.8s-.4-1.5-.4-2.4zm2.1-.1c0 .6.1 1.1.3 1.7.2.5.4.9.8 1.3.3.4.7.7 1.2.9s1 .3 1.6.3 1.1-.1 1.6-.3.9-.5 1.2-.9.6-.8.8-1.3.3-1.1.3-1.7-.1-1.1-.3-1.6-.4-.9-.8-1.3c-.3-.4-.7-.6-1.2-.8s-1-.3-1.6-.3-1.1.1-1.6.3-.9.5-1.2.8c-.3.4-.6.8-.8 1.3s-.3 1-.3 1.6z"/><path d="m333.6 31.3h2.6l5.4 8.3v-8.3h2v11.1h-2.5l-5.5-8.5v8.5h-2z"/></g><path d="m244.3 16.3h.5v26.1h-.5z" fill="#fec92f"/></svg>