<svg version="1.2" xmlns="http://www.w3.org/2000/svg" viewBox="0 0 392 121" width="392" height="121">
	<title>amazon-svg</title>
	<style>
		.s0 { fill: #ffffff } 
		.s1 { fill: #f3971b } 
	</style>
	<path id="Layer" fill-rule="evenodd" class="s0" d="m85.6 29.5v37.2q0 0.4-0.1 0.8-0.2 0.4-0.5 0.8-0.4 0.3-0.8 0.4-0.4 0.2-0.8 0.2h-11.7q-0.5 0-0.9-0.2-0.4-0.1-0.8-0.4-0.3-0.4-0.4-0.8-0.2-0.4-0.2-0.8v-60.4q0-0.5 0.2-0.9 0.1-0.4 0.4-0.7 0.4-0.3 0.8-0.5 0.4-0.2 0.9-0.2h10.8q0.4 0 0.9 0.2 0.4 0.2 0.7 0.5 0.3 0.3 0.5 0.7 0.2 0.4 0.2 0.9v8.5c0 0 3.8-12.1 15.3-12.1 0 0 11.4-1.4 16 11.2 0 0 3.9-11.2 15.7-11.2 0 0 17.4-1.1 17.4 17l0.2 10v37.1q0 0.4-0.2 0.8-0.2 0.5-0.5 0.8-0.3 0.3-0.7 0.5-0.5 0.1-0.9 0.1h-11.7q-0.5 0-0.9-0.1-0.4-0.2-0.7-0.5-0.3-0.3-0.5-0.8-0.2-0.4-0.2-0.8l-0.1-40.5c0.3-9.2-7.1-8.5-7.1-8.5-9.3 0.2-8.4 11.9-8.4 11.9v37.1q0 0.4-0.2 0.8-0.2 0.5-0.5 0.8-0.3 0.3-0.7 0.5-0.4 0.1-0.9 0.1h-11.7q-0.4 0-0.9-0.1-0.4-0.2-0.7-0.5-0.3-0.3-0.5-0.8-0.2-0.4-0.2-0.8v-39.6c0 0 0.7-9.5-7.6-9.5 0 0-8.3-1.1-8 11.8zm302-0.1v37.1q0 0.5-0.2 0.9-0.2 0.4-0.5 0.7-0.3 0.4-0.7 0.5-0.4 0.2-0.9 0.2l-12.2 0.2q-0.4 0-0.8-0.1-0.4-0.2-0.8-0.5-0.3-0.3-0.5-0.8-0.1-0.4-0.1-0.8v-39.6c0 0 0.7-9.5-7.7-9.5 0 0-7.9-0.4-7.9 14.5v34.4q0 0.5-0.2 0.9-0.2 0.4-0.5 0.8-0.3 0.3-0.7 0.4-0.5 0.2-0.9 0.2h-11.7q-0.5 0-0.9-0.2-0.4-0.1-0.7-0.4-0.3-0.4-0.5-0.8-0.2-0.4-0.2-0.9v-60.3q0-0.5 0.2-0.9 0.2-0.4 0.5-0.7 0.3-0.3 0.7-0.5 0.4-0.2 0.9-0.2h10.8q0.5 0 0.9 0.2 0.4 0.2 0.7 0.5 0.3 0.3 0.5 0.7 0.2 0.4 0.2 0.9v8.5c0 0 3.9-12.1 15.4-12.1 0 0 12.3-1.9 16.4 11 0 0 1.4 2.6 1.4 15.7zm-57.5 6.9c0 18.7-10.3 33.9-27.1 33.9-17.7 0-27.1-15.2-27.1-33.9 0-21.3 12.1-33.9 27.1-33.9 15 0 27.1 13 27.1 33.9zm-17.6-0.6c0-8-1-12.2-1-12.2-1.5-8.5-7.6-8.5-8.5-8.5-1 0-7.2 0.1-8.5 8.5 0 0-1 4.2-1 12.2v1.3c0 8 1 12.3 1 12.3 1.3 8.4 7.5 8.5 8.5 8.4 0.9 0.1 7 0 8.5-8.4 0 0 1-4.3 1-12.3zm-66.4 12.1c12.1-0.8 21.4 4.3 21.4 4.3 3.2 1.5 2.9 3.9 2.9 3.9v9.2c0 3.3-3.4 1.8-3.4 1.8-8-4.9-20.1-4.8-20.1-4.8-12.2 0-19.5 4.4-19.5 4.4-4.1 2.1-3.9-1.5-3.9-1.5v-10.5c-0.1-1.6 0.9-3 0.9-3l23.9-34.7h-20.2q-0.5 0-0.9-0.1-0.4-0.2-0.7-0.5-0.3-0.3-0.5-0.8-0.2-0.4-0.2-0.8v-8.6q0-0.5 0.2-0.9 0.2-0.4 0.5-0.7 0.3-0.3 0.7-0.5 0.4-0.2 0.9-0.2h38.7q0.5 0 0.9 0.2 0.4 0.2 0.7 0.5 0.3 0.3 0.5 0.7 0.2 0.4 0.2 0.9v8.6zm-186.3 13.5l-8.6 7.5c0 0-2 1.7-3.9-0.4 0 0-3.9-3.5-6-7.1 0 0-7 8.6-18.8 8.6 0 0-18.5 0.9-18.5-18.6 0 0-0.7-11.9 9.9-17.9 0 0 8-4.7 25.1-5.3v-6.2c0 0 0.1-7.3-8.5-7.3-7.9 0-9.3 7.4-9.3 7.4-0.7 2.2-2.5 1.8-2.5 1.8l-10.7-1.1c0 0-2.7-0.1-1.7-3.5 0 0 3.2-17.1 25.1-17.1 0 0 24.7-1.9 24.2 20.3v25.8c0 0-0.1 2.3 1.1 4.4l3.6 5.6c0 0 1.5 1.7-0.5 3.1zm-20.8-20.6v-3.3c-11.7-0.1-16.5 4.1-17.4 9.6-1 5.4 1.1 10.9 6.7 10.9 4.6 0 11.1-2.8 10.7-17.2zm176.5 20.6l-8.7 7.5c0 0-2 1.7-3.9-0.4 0 0-3.8-3.5-5.9-7.1 0 0-7 8.6-18.8 8.6 0 0-18.5 0.9-18.5-18.6 0 0-0.7-11.9 9.9-17.9 0 0 7.9-4.7 25.1-5.3v-6.2c0 0 0.1-7.3-8.5-7.3-7.9 0-9.3 7.4-9.3 7.4-0.7 2.2-2.5 1.8-2.5 1.8l-10.7-1.1c0 0-2.7-0.1-1.8-3.5 0 0 3.3-17.1 25.2-17.1 0 0 24.7-1.9 24.2 20.3v25.8c0 0-0.1 2.3 1 4.4l3.7 5.6c0 0 1.4 1.7-0.5 3.1zm-20.8-20.6v-3.3c-11.7-0.1-16.5 4.1-17.5 9.6-0.9 5.4 1.2 10.9 6.7 10.9 4.7 0 11.2-2.8 10.8-17.2z"/>
	<g id="Layer">
		<path id="Layer" class="s1" d="m245.5 106.9c0 0-1 1.7 0.2 2 0 0 1.4 0.6 3.1-1 0 0 12.4-10.8 12.7-30.5 0 0 0-2.4-0.9-3.1 0 0-3.9-3.4-17.9-2.4 0 0-12.1 0.8-18.7 6.7 0 0-0.6 0.5-0.6 1.2 0 0-0.2 1.5 3.5 0.8 0 0 12.1-1.7 19.3-0.8 0 0 3.8 0.5 4.8 1.7 0 0 1.7 1.4 0.8 6.1 0 0-2.4 12-6.3 19.3z"/>
		<path id="Layer" class="s1" d="m243.1 88c0 0 1.8 2.3-1.2 4.4 0 0-31.2 25-83.7 25 0 0-54.1 2.6-99.2-38.4 0 0-1.6-1.3-0.6-2.6 0 0 0.9-1.2 3.2 0.1 0 0 42.4 26.4 98.2 26.4 0 0 38.7 1.5 78.5-15.5 0 0 3.1-1.6 4.8 0.6z"/>
	</g>
</svg>