<svg xmlns="http://www.w3.org/2000/svg" viewBox="0 0 183.01 96.46"><defs><style>.cls-1{fill:#fff;}</style></defs><g id="Layer_2" data-name="Layer 2"><g id="Layer_1-2" data-name="Layer 1"><rect class="cls-1" x="51.77" y="64.09" width="8.02" height="31.8"/><path class="cls-1" d="M124.49,73.21a14.08,14.08,0,0,0-6.74-1.71c-5.2,0-8.8,3.63-8.8,8.49s3.45,8.48,8.8,8.48a14.2,14.2,0,0,0,6.74-1.68v8.54a25.81,25.81,0,0,1-7.32,1.13c-9,0-16.94-6.22-16.94-16.47,0-9.5,7.17-16.45,16.94-16.45a24.78,24.78,0,0,1,7.32,1.13Z"/><path class="cls-1" d="M40.74,73.21A14.08,14.08,0,0,0,34,71.5c-5.21,0-8.8,3.63-8.8,8.49s3.44,8.48,8.8,8.48a14.25,14.25,0,0,0,6.74-1.68v8.54a25.76,25.76,0,0,1-7.33,1.13c-9,0-16.92-6.22-16.92-16.47,0-9.5,7.16-16.45,16.92-16.45a24.8,24.8,0,0,1,7.33,1.13Z"/><path class="cls-1" d="M166.53,80a16.33,16.33,0,0,1-16.79,16.47c-9.79,0-16.8-7.38-16.8-16.47s7-16.45,16.8-16.45S166.53,70.9,166.53,80m-16.79-8.36A8.37,8.37,0,1,0,158,80a8.23,8.23,0,0,0-8.3-8.36"/><path class="cls-1" d="M90.22,71.32a27.28,27.28,0,0,0-6.27-1c-3.22,0-5,1.08-5,2.61,0,1.93,2.36,2.61,3.67,3l2.22.7c5.2,1.65,7.58,5.22,7.58,9.09,0,8-7,10.68-13.17,10.68a48.44,48.44,0,0,1-8.66-.87V88.27a30.05,30.05,0,0,0,7.58,1.18c4,0,5.83-1.16,5.83-3,0-1.6-1.59-2.53-3.57-3.15l-1.73-.56c-4.45-1.41-8.19-4-8.19-9.3,0-5.94,4.45-9.94,11.85-9.94a34.59,34.59,0,0,1,7.82,1Z"/><path class="cls-1" d="M8,29.92a4,4,0,0,0-8,0v8.34a4,4,0,0,0,8,0Z"/><path class="cls-1" d="M29.86,19a4,4,0,0,0-8,0v19.3a4,4,0,0,0,8,0Z"/><path class="cls-1" d="M51.73,4a4,4,0,0,0-8,0V46.2a4,4,0,1,0,8,0Z"/><path class="cls-1" d="M73.62,19a4,4,0,1,0-8,0v19.3a4,4,0,1,0,8,0Z"/><path class="cls-1" d="M95.48,29.92a4,4,0,1,0-7.94,0v8.34a4,4,0,1,0,7.94,0Z"/><path class="cls-1" d="M117.38,19a4,4,0,1,0-7.95,0v19.3a4,4,0,1,0,7.95,0Z"/><path class="cls-1" d="M139.27,4a4,4,0,0,0-8,0V46.2a4,4,0,1,0,8,0Z"/><path class="cls-1" d="M161.16,19a4,4,0,0,0-8,0v19.3a4,4,0,0,0,8,0Z"/><path class="cls-1" d="M183,29.92a4,4,0,1,0-7.94,0v8.34a4,4,0,1,0,7.94,0Z"/><polygon class="cls-1" points="178.41 91.7 178.41 92.2 177.01 92.2 177.01 95.89 176.41 95.89 176.41 92.2 174.99 92.2 174.99 91.7 178.41 91.7"/><polygon class="cls-1" points="178.71 91.7 179.63 91.7 180.88 95.13 180.91 95.13 182.12 91.7 183.01 91.7 183.01 95.89 182.41 95.89 182.41 92.46 182.39 92.46 181.12 95.89 180.56 95.89 179.32 92.46 179.3 92.46 179.3 95.89 178.71 95.89 178.71 91.7"/></g></g></svg>