<svg version="1.2" xmlns="http://www.w3.org/2000/svg" viewBox="0 0 204 47" width="204" height="47"><style>.a{fill:#ee2722}</style><path fill-rule="evenodd" class="a" d="m49.8 35.8c-7.4 0-13.3-5.3-13.3-12 0-6.8 5.9-12.1 13.3-12.1 7.5 0 13.3 5.3 13.3 12.1 0 6.7-5.8 12-13.3 12zm0-19.2c-4.7 0-8.5 3.1-8.5 7.2 0 4 3.8 7.1 8.5 7.1 4.7 0 8.5-3.1 8.5-7.1 0-4.1-3.8-7.2-8.5-7.2zm47.6 19.2c-2.7 0-4.8-2.3-4.8-5v-10c0-2.3-2.1-4.2-4.7-4.2-2.5 0-4.5 1.9-4.5 4.2v15c-2.7 0-4.9-2.2-4.9-4.9v-10.1c0-2.3-2-4.2-4.6-4.2-2.5 0-4.6 1.9-4.6 4.2v10.1c0 2.7-2.2 4.9-4.9 4.9v-15c0-5 4.3-9.1 9.5-9.1 2.8 0 5.3 1.2 7 3 1.7-1.8 4.3-3 7-3 5.3 0 9.5 4.1 9.5 9.1zm15.8 0c-1.3 0-2.5-0.1-3.6-0.4-2.5-0.7-4-3.3-3.4-5.8 0.2-0.3 0.2-0.6 0.3-0.9h0.1c1.4 1.5 3.6 2.2 6.6 2.2 4.4 0 7.9-3.1 7.9-7 0-4.1-3.5-7.3-7.9-7.3-4.2 0-8.4 2.3-8.4 7.4v15.7c0 2.6-2.2 4.7-4.9 4.7v-20.4c0-7 5.6-12.3 13.3-12.3 3.3 0 6.5 1.3 8.9 3.5q0.9 0.9 1.6 1.9 0.8 0.9 1.2 2.1 0.5 1.1 0.8 2.3 0.2 1.2 0.2 2.4c0 6.7-5.6 11.9-12.7 11.9zm34.5-28.6h-10.4v28.6h-0.2c-2.5 0-4.6-2.2-4.6-4.8v-23.8h-10.4c-2.6 0-4.7-2.2-4.7-4.8h35.1c0 2.6-2.1 4.8-4.8 4.8zm41.5 25.6l-2.6-5.5h-17.2l-2.5 5.7c-1.2 2.2-4.4 2.9-6.9 2.9l14.1-30.7c0.8-1.8 2.2-2.8 3.8-2.8 1.6 0 3.1 1 3.9 2.8l13.8 30.3c-2.6 0.3-5.4-0.5-6.4-2.7zm-11.6-25.5l0.4 1 0.4-0.9zm-6 15.2h13l-6.5-14.2zm-140.6-11.1q-1-1.1-2.2-2-1.3-0.8-2.6-1.4-1.4-0.6-2.9-0.9-1.4-0.3-2.9-0.3c-7.6 0-13.7 5.4-13.7 12.1 0 6.8 6.1 12.3 13.7 12.3 3.5 0 6.9-1.4 9.5-3.6 1.8-1.4 4.4-1.4 6.1 0.1-1.3 2-3.1 3.8-5.3 5.2-3 1.9-6.6 2.9-10.3 2.9-10.2 0-18.4-7.6-18.4-16.9 0-9.3 8.2-16.9 18.4-16.9 7.2 0 13.7 4 16.6 10-1.8 1.2-4.4 1.1-6-0.6zm166.5 22.5c-1.5 0-2.6-1-2.6-2.3 0-1.2 1.1-2.3 2.6-2.3 1.4 0 2.5 1.1 2.5 2.3 0 1.3-1.1 2.3-2.5 2.3zm0-4c-1.1 0-2.1 0.8-2.1 1.7 0 1 1 1.8 2.1 1.8 1.1 0 2-0.8 2-1.8 0-0.9-0.9-1.7-2-1.7zm0.9 2q0 0 0 0-0.1 0-0.1 0 0 0-0.1 0 0 0.1 0 0.1c0 0 0.1 0.1 0.6 0.7l-0.1 0.1q0 0-0.1 0.1-0.1 0-0.2 0-0.1 0-0.2 0-0.1-0.1-0.2-0.1 0-0.1-0.1-0.2-0.1-0.1-0.2-0.2 0-0.1-0.1-0.2-0.1-0.1-0.1-0.2h-0.7v-0.1c0.1-0.3 0.3-0.5 0.5-0.5h0.3q0.3 0 0.5-0.1 0.1 0 0.1-0.2c0 0 0-0.2-0.6-0.2h-0.8v1.5c0 0.3-0.2 0.5-0.5 0.5h-0.1v-2.2c0-0.3 0.2-0.4 0.4-0.5h1c1.1 0 1.2 0.7 1.2 0.9 0 0.4-0.1 0.6-0.4 0.8zm-39.5-24.9v28.8c-2.6 0-4.9-2.1-4.9-4.7v-28.8c2.7 0 4.9 2.2 4.9 4.7z"/><path fill-rule="evenodd" class="a" d="m49.8 35.8c-7.4 0-13.3-5.3-13.3-12 0-6.8 5.9-12.1 13.3-12.1 7.5 0 13.3 5.3 13.3 12.1 0 6.7-5.8 12-13.3 12zm0-19.2c-4.7 0-8.5 3.1-8.5 7.2 0 4 3.8 7.1 8.5 7.1 4.7 0 8.5-3.1 8.5-7.1 0-4.1-3.8-7.2-8.5-7.2zm47.6 19.2c-2.7 0-4.8-2.3-4.8-5v-10c0-2.3-2.1-4.2-4.7-4.2-2.5 0-4.5 1.9-4.5 4.2v15c-2.7 0-4.9-2.2-4.9-4.9v-10.1c0-2.3-2-4.2-4.6-4.2-2.5 0-4.6 1.9-4.6 4.2v10.1c0 2.7-2.2 4.9-4.9 4.9v-15c0-5 4.3-9.1 9.5-9.1 2.8 0 5.3 1.2 7 3 1.7-1.8 4.3-3 7-3 5.3 0 9.5 4.1 9.5 9.1zm15.8 0c-1.3 0-2.5-0.1-3.6-0.4-2.5-0.7-4-3.3-3.4-5.8 0.2-0.3 0.2-0.6 0.3-0.9h0.1c1.4 1.5 3.6 2.2 6.6 2.2 4.4 0 7.9-3.1 7.9-7 0-4.1-3.5-7.3-7.9-7.3-4.2 0-8.4 2.3-8.4 7.4v15.7c0 2.6-2.2 4.7-4.9 4.7v-20.4c0-7 5.6-12.3 13.3-12.3 3.3 0 6.5 1.3 8.9 3.5q0.9 0.9 1.6 1.9 0.8 0.9 1.2 2.1 0.5 1.1 0.8 2.3 0.2 1.2 0.2 2.4c0 6.7-5.6 11.9-12.7 11.9zm34.5-28.6h-10.4v28.6h-0.2c-2.5 0-4.6-2.2-4.6-4.8v-23.8h-10.4c-2.6 0-4.7-2.2-4.7-4.8h35.1c0 2.6-2.1 4.8-4.8 4.8zm41.5 25.6l-2.6-5.5h-17.2l-2.5 5.7c-1.2 2.2-4.4 2.9-6.9 2.9l14.1-30.7c0.8-1.8 2.2-2.8 3.8-2.8 1.6 0 3.1 1 3.9 2.8l13.8 30.3c-2.6 0.3-5.4-0.5-6.4-2.7zm-11.6-25.5l0.4 1 0.4-0.9zm-6 15.2h13l-6.5-14.2zm-140.6-11.1q-1-1.1-2.2-2-1.3-0.8-2.6-1.4-1.4-0.6-2.9-0.9-1.4-0.3-2.9-0.3c-7.6 0-13.7 5.4-13.7 12.1 0 6.8 6.1 12.3 13.7 12.3 3.5 0 6.9-1.4 9.5-3.6 1.8-1.4 4.4-1.4 6.1 0.1-1.3 2-3.1 3.8-5.3 5.2-3 1.9-6.6 2.9-10.3 2.9-10.2 0-18.4-7.6-18.4-16.9 0-9.3 8.2-16.9 18.4-16.9 7.2 0 13.7 4 16.6 10-1.8 1.2-4.4 1.1-6-0.6zm166.5 22.5c-1.5 0-2.6-1-2.6-2.3 0-1.2 1.1-2.3 2.6-2.3 1.4 0 2.5 1.1 2.5 2.3 0 1.3-1.1 2.3-2.5 2.3zm0-4c-1.1 0-2.1 0.8-2.1 1.7 0 1 1 1.8 2.1 1.8 1.1 0 2-0.8 2-1.8 0-0.9-0.9-1.7-2-1.7zm0.9 2q0 0 0 0-0.1 0-0.1 0 0 0-0.1 0 0 0.1 0 0.1c0 0 0.1 0.1 0.6 0.7l-0.1 0.1q0 0-0.1 0.1-0.1 0-0.2 0-0.1 0-0.2 0-0.1-0.1-0.2-0.1 0-0.1-0.1-0.2-0.1-0.1-0.2-0.2 0-0.1-0.1-0.2-0.1-0.1-0.1-0.2h-0.7v-0.1c0.1-0.3 0.3-0.5 0.5-0.5h0.3q0.3 0 0.5-0.1 0.1 0 0.1-0.2c0 0 0-0.2-0.6-0.2h-0.8v1.5c0 0.3-0.2 0.5-0.5 0.5h-0.1v-2.2c0-0.3 0.2-0.4 0.4-0.5h1c1.1 0 1.2 0.7 1.2 0.9 0 0.4-0.1 0.6-0.4 0.8zm-39.5-24.9v28.8c-2.6 0-4.9-2.1-4.9-4.7v-28.8c2.7 0 4.9 2.2 4.9 4.7z"/></svg>