<svg xmlns="http://www.w3.org/2000/svg" viewBox="0 0 264.38 56.53"><defs><style>.cls-1{fill:#fff;}</style></defs><g id="Layer_2" data-name="Layer 2"><g id="Layer_1-2" data-name="Layer 1"><path class="cls-1" d="M63.82,19.44c-6.33,0-11.29,4.2-11.29,9.62s5,9.56,11.29,9.56,11.36-4.16,11.36-9.56-5-9.62-11.36-9.62m0,25.64c-9.93,0-17.77-7-17.77-16S53.89,13,63.82,13,81.61,20,81.61,29.06s-7.8,16-17.79,16m63.6,0A6.51,6.51,0,0,1,121,38.51V25.16a6.17,6.17,0,0,0-12.31,0V45.08a6.47,6.47,0,0,1-6.49-6.46V25.16a6.18,6.18,0,0,0-12.32,0V38.54a6.5,6.5,0,0,1-6.47,6.54V25.16A12.42,12.42,0,0,1,96,13,12.64,12.64,0,0,1,105.38,17,12.66,12.66,0,0,1,114.74,13a12.44,12.44,0,0,1,12.68,12.2Zm21-.06a22.37,22.37,0,0,1-4.81-.47,6.44,6.44,0,0,1-4.45-7.79c.15-.42.26-.83.41-1.16l.07-.07c1.81,2,4.77,3,8.78,3,5.89,0,10.57-4.15,10.57-9.41,0-5.48-4.68-9.77-10.57-9.77-5.61,0-11.19,3.1-11.19,9.91v21a6.44,6.44,0,0,1-6.5,6.32V29.25c0-9.39,7.43-16.36,17.69-16.36a17.71,17.71,0,0,1,12,4.67,15.7,15.7,0,0,1,5,11.56c0,8.92-7.46,15.9-17,15.9m46.11-38.2H180.71V45.08h-.28a6.35,6.35,0,0,1-6.18-6.46V6.82H160.4a6.36,6.36,0,0,1-6.31-6.4H201a6.38,6.38,0,0,1-6.4,6.4m41,.31L226.4,27.3h17.34L234.47,7ZM249.92,41l-3.42-7.38h-23l-3.37,7.59c-1.6,3-5.86,3.94-9.11,3.94l18.71-41a5.42,5.42,0,0,1,10.3,0l18.5,40.54C255,45,251.26,44,249.92,41M38.79,12.49A19.73,19.73,0,0,0,24.51,6.34c-10,0-18.19,7.29-18.19,16.28s8.17,16.29,18.19,16.29a19.83,19.83,0,0,0,12.72-4.73,6.46,6.46,0,0,1,8.17.13,22.59,22.59,0,0,1-7,6.88,25.52,25.52,0,0,1-13.88,4C11,45.16,0,35,0,22.62S11,0,24.51,0C34.15,0,42.9,5.28,46.77,13.37a6.22,6.22,0,0,1-8-.88M262.25,39.84a1.14,1.14,0,0,1-.31.16s.21.22.85,1l-.11.08a.66.66,0,0,1-.93-.05L261,40.1h-.83v-.26a.67.67,0,0,1,.63-.56h.42a1.5,1.5,0,0,0,.64-.13c.1,0,.12-.14.12-.28s0-.34-.76-.34h-1.12v2.1a.64.64,0,0,1-.67.62h-.14v-3a.65.65,0,0,1,.62-.58h1.31c1.45,0,1.59.83,1.59,1.17a1.08,1.08,0,0,1-.54,1M261,37.22a2.56,2.56,0,0,0-2.71,2.35,2.74,2.74,0,0,0,5.43,0A2.57,2.57,0,0,0,261,37.22m0,5.4a3.08,3.08,0,1,1,3.38-3,3.24,3.24,0,0,1-3.38,3M203,.43v38.4a6.43,6.43,0,0,0,6.46,6.25V6.72A6.44,6.44,0,0,0,203,.43"/></g></g></svg>