<?xml version="1.0" encoding="utf-8"?>
<!-- Generator: Adobe Illustrator 25.2.0, SVG Export Plug-In . SVG Version: 6.00 Build 0)  -->
<svg version="1.1" id="Layer_1" xmlns="http://www.w3.org/2000/svg" xmlns:xlink="http://www.w3.org/1999/xlink" x="0px" y="0px"
	 viewBox="0 0 192 37" style="enable-background:new 0 0 192 37;" xml:space="preserve">
<style type="text/css">
	.st0{fill:#FF0000;}
</style>
<g>
	<g>
		<path class="st0" d="M1,2.3h15v6.9h-6v6.6h5.6v6.6H10v7.6h6.6V37H1V2.3z"/>
		<path class="st0" d="M40.3,17.4h-9v-6c0-1.8-0.1-2.8-0.3-3.3c-0.2-0.4-0.6-0.7-1.3-0.7c-0.7,0-1.2,0.3-1.4,0.8
			C28.1,8.8,28,9.9,28,11.7v16.1c0,1.7,0.1,2.8,0.3,3.3c0.2,0.5,0.6,0.8,1.3,0.8c0.7,0,1.1-0.3,1.3-0.8c0.2-0.5,0.3-1.7,0.3-3.6
			v-4.4h9v1.4c0,3.6-0.3,6.1-0.8,7.6c-0.5,1.5-1.6,2.8-3.4,3.9c-1.7,1.1-3.9,1.7-6.4,1.7c-2.6,0-4.8-0.5-6.5-1.4
			c-1.7-1-2.8-2.3-3.4-4c-0.6-1.7-0.8-4.2-0.8-7.6V14.5c0-2.5,0.1-4.4,0.3-5.6c0.2-1.2,0.7-2.5,1.5-3.6c0.8-1.2,2-2.1,3.5-2.7
			c1.5-0.7,3.2-1,5.2-1c2.7,0,4.8,0.5,6.6,1.5c1.7,1,2.9,2.3,3.4,3.8c0.5,1.5,0.8,3.9,0.8,7.2V17.4z"/>
		<path class="st0" d="M53.9,19.8v6H42.5v-6H53.9z"/>
		<path class="st0" d="M77.5,17.4h-9v-6c0-1.8-0.1-2.8-0.3-3.3c-0.2-0.4-0.6-0.7-1.3-0.7c-0.7,0-1.2,0.3-1.4,0.8
			c-0.2,0.5-0.3,1.7-0.3,3.4v16.1c0,1.7,0.1,2.8,0.3,3.3c0.2,0.5,0.6,0.8,1.3,0.8c0.7,0,1.1-0.3,1.3-0.8c0.2-0.5,0.3-1.7,0.3-3.6
			v-4.4h9v1.4c0,3.6-0.3,6.1-0.8,7.6c-0.5,1.5-1.6,2.8-3.4,3.9c-1.7,1.1-3.9,1.7-6.4,1.7c-2.6,0-4.8-0.5-6.5-1.4
			c-1.7-1-2.8-2.3-3.4-4c-0.6-1.7-0.8-4.2-0.8-7.6V14.5c0-2.5,0.1-4.4,0.3-5.6c0.2-1.2,0.7-2.5,1.5-3.6c0.8-1.2,2-2.1,3.5-2.7
			c1.5-0.7,3.2-1,5.2-1c2.7,0,4.8,0.5,6.6,1.5c1.7,1,2.9,2.3,3.4,3.8c0.5,1.5,0.8,3.9,0.8,7.2V17.4z"/>
		<path class="st0" d="M100.1,18.6v7c0,2.6-0.1,4.4-0.4,5.6c-0.3,1.2-0.8,2.3-1.6,3.3c-0.8,1-1.9,1.8-3.2,2.3
			c-1.3,0.5-2.8,0.7-4.6,0.7c-1.9,0-3.5-0.2-4.9-0.6c-1.3-0.4-2.4-1.1-3.1-1.9c-0.7-0.9-1.3-1.9-1.6-3.1c-0.3-1.2-0.5-3-0.5-5.4
			v-7.3c0-2.6,0.3-4.7,0.9-6.2c0.6-1.5,1.6-2.7,3.1-3.6c1.5-0.9,3.4-1.4,5.7-1.4c1.9,0,3.6,0.3,5,0.9c1.4,0.6,2.5,1.3,3.2,2.3
			c0.8,0.9,1.3,1.9,1.6,2.9S100.1,16.5,100.1,18.6z M91.4,16.4c0-1.5-0.1-2.4-0.2-2.8c-0.2-0.4-0.5-0.6-1-0.6s-0.9,0.2-1,0.6
			C89,14,88.9,15,88.9,16.4v12.8c0,1.3,0.1,2.2,0.3,2.6c0.2,0.4,0.5,0.6,1,0.6c0.5,0,0.9-0.2,1-0.6c0.2-0.4,0.2-1.2,0.2-2.4V16.4z"
			/>
		<path class="st0" d="M122.8,8.6V37h-8.8l0.1-2.4c-0.6,1-1.3,1.7-2.2,2.2c-0.9,0.5-1.9,0.7-3,0.7c-1.3,0-2.4-0.2-3.2-0.7
			c-0.9-0.5-1.5-1.1-1.9-1.8c-0.4-0.8-0.7-1.5-0.8-2.4c-0.1-0.8-0.1-2.5-0.1-4.9V8.6h8.7v19.3c0,2.2,0.1,3.5,0.2,3.9
			c0.1,0.4,0.5,0.6,1.1,0.6c0.6,0,1-0.2,1.1-0.6s0.2-1.8,0.2-4.1V8.6H122.8z"/>
		<path class="st0" d="M134.7,8.6l-0.1,2.6c0.6-1,1.4-1.8,2.3-2.4c0.9-0.5,2-0.8,3.1-0.8c1.5,0,2.7,0.4,3.6,1.1
			c0.9,0.7,1.6,1.6,1.8,2.6c0.3,1.1,0.4,2.8,0.4,5.3V37h-8.7V17.3c0-2-0.1-3.2-0.2-3.6c-0.1-0.4-0.5-0.6-1.1-0.6
			c-0.6,0-1,0.2-1.2,0.7c-0.2,0.5-0.2,1.8-0.2,4V37h-8.7V8.6H134.7z"/>
		<path class="st0" d="M167.9,19.3h-8.2V16c0-1.1-0.1-1.9-0.3-2.3c-0.2-0.4-0.5-0.6-1-0.6s-0.8,0.2-1,0.5c-0.2,0.4-0.3,1.2-0.3,2.4
			v13.4c0,1,0.1,1.8,0.4,2.3c0.3,0.5,0.6,0.8,1.1,0.8c0.6,0,1-0.3,1.2-0.8c0.2-0.5,0.3-1.5,0.3-3v-3.4h7.7c0,2.3-0.1,4-0.2,5.1
			c-0.1,1.1-0.6,2.3-1.4,3.5c-0.8,1.2-1.9,2.1-3.2,2.7c-1.3,0.6-2.9,0.9-4.8,0.9c-2.4,0-4.4-0.4-5.8-1.3c-1.4-0.8-2.4-2-3-3.5
			c-0.6-1.5-0.9-3.6-0.9-6.4v-8.1c0-2.4,0.2-4.2,0.7-5.5s1.5-2.3,3.1-3.3c1.6-1,3.5-1.4,5.8-1.4c2.3,0,4.2,0.5,5.8,1.4
			c1.6,1,2.7,2.2,3.2,3.6C167.7,14.6,167.9,16.6,167.9,19.3z"/>
		<path class="st0" d="M179.4,2.3v4.5h-8.9V2.3H179.4z M179.4,8.6V37h-8.9V8.6H179.4z"/>
		<path class="st0" d="M191.5,2.3V37h-8.9V2.3H191.5z"/>
	</g>
</g>
</svg>
