<svg xmlns="http://www.w3.org/2000/svg" viewBox="0 0 310.05 58.85"><defs><style>.cls-1{fill:#fff;}</style></defs><g id="Layer_2" data-name="Layer 2"><g id="Layer_1-2" data-name="Layer 1"><path class="cls-1" d="M0,1.19H24.49v11.3h-9.8V23.2h9.17V33.94H14.69V46.36H25.46v11.3H0Z"/><path class="cls-1" d="M64,25.78H49.29V16a17.73,17.73,0,0,0-.47-5.34,2,2,0,0,0-2.08-1.06,2.18,2.18,0,0,0-2.3,1.29A19.82,19.82,0,0,0,44,16.43V42.66A18.54,18.54,0,0,0,44.44,48a2.1,2.1,0,0,0,2.2,1.25A2.08,2.08,0,0,0,48.79,48a20.91,20.91,0,0,0,.5-5.91V35H64v2.2Q64,46,62.74,49.66a12.7,12.7,0,0,1-5.48,6.43,18.74,18.74,0,0,1-10.45,2.76,21.63,21.63,0,0,1-10.64-2.34A11.36,11.36,0,0,1,30.63,50q-1.36-4.12-1.36-12.44V21.1A73.05,73.05,0,0,1,29.69,12a12.72,12.72,0,0,1,2.49-5.88,13.88,13.88,0,0,1,5.76-4.45A20.79,20.79,0,0,1,46.4,0,20.69,20.69,0,0,1,57.1,2.51a12,12,0,0,1,5.55,6.25Q64,12.51,64,20.41Z"/><path class="cls-1" d="M86.09,29.65v9.73H67.57V29.65Z"/><path class="cls-1" d="M124.57,25.78H109.88V16c0-2.85-.15-4.63-.47-5.34a2,2,0,0,0-2.07-1.06,2.16,2.16,0,0,0-2.3,1.29,19.44,19.44,0,0,0-.49,5.58V42.66A18.18,18.18,0,0,0,105,48a2.5,2.5,0,0,0,4.34,0,20.91,20.91,0,0,0,.5-5.91V35h14.69v2.2q0,8.78-1.24,12.44a12.65,12.65,0,0,1-5.48,6.43,18.71,18.71,0,0,1-10.44,2.76,21.6,21.6,0,0,1-10.64-2.34A11.37,11.37,0,0,1,91.22,50q-1.36-4.12-1.36-12.44V21.1A73.05,73.05,0,0,1,90.28,12a12.83,12.83,0,0,1,2.49-5.88,14,14,0,0,1,5.76-4.45A20.79,20.79,0,0,1,107,0,20.76,20.76,0,0,1,117.7,2.51a12,12,0,0,1,5.54,6.25q1.33,3.75,1.33,11.65Z"/><path class="cls-1" d="M161.3,27.63V39a47.61,47.61,0,0,1-.63,9.15A12.74,12.74,0,0,1,158,53.56a12.19,12.19,0,0,1-5.29,3.74,21.17,21.17,0,0,1-7.41,1.2,26.34,26.34,0,0,1-7.92-1,10.79,10.79,0,0,1-5-3.1,12.25,12.25,0,0,1-2.56-5A37.77,37.77,0,0,1,129,40.5V28.64a28.77,28.77,0,0,1,1.4-10.08,11.6,11.6,0,0,1,5-5.83,17.73,17.73,0,0,1,9.28-2.19A21.18,21.18,0,0,1,152.84,12a13,13,0,0,1,5.25,3.68,12.87,12.87,0,0,1,2.53,4.67A28.82,28.82,0,0,1,161.3,27.63Zm-14.09-3.49a15.61,15.61,0,0,0-.38-4.48,1.59,1.59,0,0,0-1.64-.93,1.66,1.66,0,0,0-1.68.93,14.07,14.07,0,0,0-.42,4.48V45a13.48,13.48,0,0,0,.42,4.27,1.91,1.91,0,0,0,3.3.09,11.81,11.81,0,0,0,.4-3.91Z"/><path class="cls-1" d="M198.21,11.37V57.66H183.87l.25-3.84a9.78,9.78,0,0,1-3.62,3.51,10.09,10.09,0,0,1-4.93,1.17,11.06,11.06,0,0,1-5.27-1.12,7.32,7.32,0,0,1-3.09-3A10.83,10.83,0,0,1,166,50.56a78.65,78.65,0,0,1-.25-8V11.37h14.1v31.5a32.93,32.93,0,0,0,.33,6.42c.22.68.82,1,1.79,1s1.67-.35,1.87-1a39.81,39.81,0,0,0,.3-6.74V11.37Z"/><path class="cls-1" d="M217.6,11.37l-.24,4.27a10.53,10.53,0,0,1,3.75-3.83,10.07,10.07,0,0,1,5.11-1.27,9.74,9.74,0,0,1,5.93,1.7,7.64,7.64,0,0,1,3,4.31,39.59,39.59,0,0,1,.66,8.67V57.66H221.69V25.6a29.53,29.53,0,0,0-.32-5.82q-.31-1.05-1.74-1.05a1.75,1.75,0,0,0-1.89,1.21,30.69,30.69,0,0,0-.38,6.43V57.66H203.27V11.37Z"/><path class="cls-1" d="M271.78,28.85H258.49V23.51a10.51,10.51,0,0,0-.45-3.78,1.69,1.69,0,0,0-1.68-1,1.64,1.64,0,0,0-1.64.87,11.21,11.21,0,0,0-.42,3.91V45.35a8.45,8.45,0,0,0,.63,3.71,2,2,0,0,0,1.85,1.24A1.89,1.89,0,0,0,258.71,49a15.41,15.41,0,0,0,.51-4.88V38.62h12.56a73.09,73.09,0,0,1-.4,8.32A13.43,13.43,0,0,1,269,52.62,12.52,12.52,0,0,1,263.9,57a18.51,18.51,0,0,1-7.85,1.48q-6,0-9.46-2a11.24,11.24,0,0,1-4.93-5.72c-1-2.45-1.45-5.94-1.45-10.45V27.14a25.29,25.29,0,0,1,1.19-8.9,11.5,11.5,0,0,1,5-5.35,20.13,20.13,0,0,1,18.84,0,11.52,11.52,0,0,1,5.2,5.9A30.8,30.8,0,0,1,271.78,28.85Z"/><path class="cls-1" d="M290.48,1.19V8.55H276V1.19Zm0,10.18V57.66H276V11.37Z"/><path class="cls-1" d="M310.05,1.19V57.66H295.54V1.19Z"/></g></g></svg>