<svg xmlns="http://www.w3.org/2000/svg" viewBox="0 0 373.28 79.71"><defs><style>.cls-1{fill:#f25022;}.cls-2{fill:#80ba01;}.cls-3{fill:#fff;}.cls-4{fill:#02a4ef;}.cls-5{fill:#ffb902;}</style></defs><g id="Layer_2" data-name="Layer 2"><g id="Layer_1-2" data-name="Layer 1"><path class="cls-1" d="M0,0H37.92V37.92H0V0Z"/><path class="cls-2" d="M41.79,0H79.71V37.92H41.79V0Z"/><path class="cls-3" d="M342,14.45c3.5-2.28,8-2.49,11.95-1.4,0,2.34,0,4.68,0,7-1.87-.82-4.08-1.36-6.05-.55a4.78,4.78,0,0,0-2.73,3.83,52.35,52.35,0,0,0-.15,6.14c4,0,8,0,12,0,0-2.6,0-5.19,0-7.79,2.72-.77,5.41-1.64,8.11-2.46,0,3.42,0,6.85,0,10.27,2.71,0,5.41,0,8.12,0v6.66c-2.72-.11-5.43,0-8.15,0,0,3.83,0,7.66,0,11.49,0,2.12-.12,4.25.13,6.36A4.14,4.14,0,0,0,367,57.24a6.14,6.14,0,0,0,6.24-.59v6.73a16.16,16.16,0,0,1-7.5,1.14,9.1,9.1,0,0,1-6.47-3C357.5,59.4,357,56.47,357,53.73c0-5.87,0-11.75,0-17.63H345q0,13.84,0,27.67h-8.2q0-13.83,0-27.66c-1.9,0-3.81,0-5.71,0,0-2.18,0-4.38,0-6.57,1.89,0,3.78,0,5.68,0,.14-2.91-.31-5.9.56-8.74A11.21,11.21,0,0,1,342,14.45Z"/><path class="cls-3" d="M166.36,14.93a5,5,0,0,1,4.54,1.6,4.68,4.68,0,0,1,.57,5.33A5.1,5.1,0,0,1,166,24.15a4.64,4.64,0,0,1-3.81-4.57,4.75,4.75,0,0,1,4.16-4.65Z"/><path class="cls-3" d="M103.51,15.94h11.93Q121,30.09,126.61,44.21c1,2.36,1.83,4.74,2.83,7.08,4.78-11.78,9.62-23.53,14.36-35.32,3.82-.06,7.65,0,11.48,0q0,23.91,0,47.82c-2.76,0-5.52,0-8.27,0,0-11.76,0-23.53,0-35.29,0-.53,0-1.06,0-1.59a8.35,8.35,0,0,0-.43.77c-4.74,12-9.57,24-14.28,36.1-2,.07-3.93,0-5.9,0-4.89-12.05-9.71-24.11-14.58-36.16-.13-.25-.26-.5-.41-.73-.1,5.15,0,10.31,0,15.46q0,10.71,0,21.42h-7.81V15.94Z"/><path class="cls-3" d="M188.93,29.46a22.4,22.4,0,0,1,12.18,0,9.4,9.4,0,0,1,2.34,1c0,2.61,0,5.23,0,7.84a13,13,0,0,0-9.36-2.87,9.59,9.59,0,0,0-6.81,3.78c-2.06,2.67-2.53,6.22-2.18,9.49a9.68,9.68,0,0,0,11,9.1,15.67,15.67,0,0,0,7.36-3c0,2.48,0,5,0,7.43a20,20,0,0,1-11.21,2.32,16.67,16.67,0,0,1-10.69-4.46,17.06,17.06,0,0,1-5-11.47,20.79,20.79,0,0,1,3.24-12.72,16.56,16.56,0,0,1,9.1-6.43Z"/><path class="cls-3" d="M278.52,28.94a21.66,21.66,0,0,1,11.35,1.18v7.54a14.47,14.47,0,0,0-8.61-2.55,4.41,4.41,0,0,0-3.92,2.17,3.53,3.53,0,0,0,1.19,4.19c2.32,1.56,5.1,2.22,7.51,3.61a10.83,10.83,0,0,1,4.69,4.47,10,10,0,0,1-2.13,11.54c-3,2.84-7.4,3.62-11.41,3.47a24.66,24.66,0,0,1-8.34-1.91c0-2.65,0-5.29,0-7.93a17.93,17.93,0,0,0,7.44,3.21,9.6,9.6,0,0,0,5.66-.52,3.26,3.26,0,0,0,1-4.66,9.76,9.76,0,0,0-3.58-2.34c-2.41-1.09-4.95-2-7.07-3.63a8.42,8.42,0,0,1-3.07-4.65A10.46,10.46,0,0,1,270.36,34a12.17,12.17,0,0,1,8.16-5Z"/><path class="cls-3" d="M221.79,30a9.25,9.25,0,0,1,7.61-.65c0,2.74,0,5.48,0,8.21a8.68,8.68,0,0,0-5.55-1.3,6.8,6.8,0,0,0-5.13,4.1,15.09,15.09,0,0,0-1.16,7V63.77h-8.09c0-11.42,0-22.84,0-34.26,2.7,0,5.4,0,8.1,0,0,2,0,3.92,0,5.89A10.46,10.46,0,0,1,221.79,30Z"/><path class="cls-3" d="M163,29.5c2.72,0,5.44,0,8.16,0,0,11.41,0,22.83,0,34.25H163q0-17.13,0-34.27Z"/><path class="cls-3" d="M263.4,37.49a14.55,14.55,0,0,0-7.16-7.24,21.81,21.81,0,0,0-11.74-1.38,16.4,16.4,0,0,0-10.79,5.76,18.27,18.27,0,0,0-3.78,10.48c-.33,4.42.41,9.11,3,12.8a15.58,15.58,0,0,0,9.48,6.18,23.52,23.52,0,0,0,9.6,0,15.76,15.76,0,0,0,9.41-5.81,18.08,18.08,0,0,0,3.61-10A22.47,22.47,0,0,0,263.4,37.49Zm-7.92,15.74a7.49,7.49,0,0,1-4,4,11,11,0,0,1-6.69.3,8.21,8.21,0,0,1-5.14-4.24,15.77,15.77,0,0,1-1.24-8.58,10.87,10.87,0,0,1,3.17-7.15,8.55,8.55,0,0,1,5.39-2.13,8.8,8.8,0,0,1,6.86,2.33,11,11,0,0,1,2.83,7.14A18,18,0,0,1,255.48,53.23Z"/><path class="cls-3" d="M329.08,38.48a14.63,14.63,0,0,0-7.05-8,21.26,21.26,0,0,0-12.17-1.65,16.89,16.89,0,0,0-9.06,3.89,16.73,16.73,0,0,0-5.41,10.52,22.7,22.7,0,0,0,1.29,11.91A15.17,15.17,0,0,0,305,63.26a22,22,0,0,0,11.55,1,16,16,0,0,0,10.08-5.9,18.71,18.71,0,0,0,3.71-11.67A22,22,0,0,0,329.08,38.48Zm-7.4,11.62a10.68,10.68,0,0,1-2.12,5,7.68,7.68,0,0,1-4.79,2.57,10.8,10.8,0,0,1-5.87-.63,8.33,8.33,0,0,1-4.32-4.53,16.23,16.23,0,0,1-1-7.47,11.85,11.85,0,0,1,2.49-6.82,8.36,8.36,0,0,1,6-2.87,9,9,0,0,1,6.58,1.93,9.41,9.41,0,0,1,3,5.46A20.69,20.69,0,0,1,321.68,50.1Z"/><path class="cls-4" d="M0,41.79H37.92V79.71H0V41.79Z"/><path class="cls-5" d="M41.79,41.79H79.71V79.71H41.79V41.79Z"/></g></g></svg>