<?xml version="1.0" encoding="utf-8"?>
<!-- Generator: Adobe Illustrator 25.2.0, SVG Export Plug-In . SVG Version: 6.00 Build 0)  -->
<svg version="1.1" id="Layer_1" xmlns="http://www.w3.org/2000/svg" xmlns:xlink="http://www.w3.org/1999/xlink" x="0px" y="0px"
	 viewBox="0 0 185 115" style="enable-background:new 0 0 185 115;" xml:space="preserve">
<style type="text/css">
	.st0{fill:#FFFFFF;}
</style>
<g>
	<rect x="54.7" y="72.6" class="st0" width="7.6" height="30.2"/>
	<path class="st0" d="M123.9,81.3c-0.3-0.2-2.8-1.6-6.4-1.6c-4.9,0-8.4,3.5-8.4,8.1c0,4.5,3.3,8.1,8.4,8.1c3.6,0,6.1-1.4,6.4-1.6
		v8.1c-1,0.3-3.6,1.1-7,1.1c-8.6,0-16.1-5.9-16.1-15.7c0-9,6.8-15.6,16.1-15.6c3.6,0,6.2,0.9,7,1.1V81.3z"/>
	<path class="st0" d="M44.2,81.3c-0.3-0.2-2.8-1.6-6.4-1.6c-4.9,0-8.4,3.5-8.4,8.1c0,4.5,3.3,8.1,8.4,8.1c3.6,0,6.1-1.4,6.4-1.6v8.1
		c-1,0.3-3.6,1.1-7,1.1c-8.6,0-16.1-5.9-16.1-15.7c0-9,6.8-15.6,16.1-15.6c3.6,0,6.2,0.9,7,1.1V81.3z"/>
	<path class="st0" d="M163.8,87.7c0,8.6-6.7,15.7-16,15.7c-9.3,0-16-7-16-15.7c0-8.6,6.7-15.6,16-15.6
		C157.2,72.1,163.8,79.1,163.8,87.7 M147.9,79.7c-4.5,0-7.9,3.6-7.9,8c0,4.4,3.4,8,7.9,8c4.5,0,7.9-3.6,7.9-8
		C155.8,83.3,152.4,79.7,147.9,79.7"/>
	<path class="st0" d="M91.3,79.5c-0.1,0-3.3-0.9-6-0.9c-3.1,0-4.7,1-4.7,2.5c0,1.8,2.2,2.5,3.5,2.9l2.1,0.7c5,1.6,7.2,5,7.2,8.6
		c0,7.6-6.7,10.2-12.5,10.2c-4.1,0-7.9-0.7-8.2-0.8v-7c0.7,0.2,3.9,1.1,7.2,1.1c3.8,0,5.5-1.1,5.5-2.8c0-1.5-1.5-2.4-3.4-3
		c-0.5-0.2-1.2-0.4-1.6-0.5c-4.2-1.3-7.8-3.8-7.8-8.8c0-5.7,4.2-9.5,11.3-9.5c3.7,0,7.2,0.9,7.4,1V79.5z"/>
	<path class="st0" d="M13.1,40.1c0-2.1-1.7-3.8-3.8-3.8c-2.1,0-3.8,1.7-3.8,3.8V48c0,2.1,1.7,3.8,3.8,3.8c2.1,0,3.8-1.7,3.8-3.8
		V40.1z"/>
	<path class="st0" d="M33.9,29.7c0-2.1-1.7-3.8-3.8-3.8c-2.1,0-3.8,1.7-3.8,3.8V48c0,2.1,1.7,3.8,3.8,3.8c2.1,0,3.8-1.7,3.8-3.8
		V29.7z"/>
	<path class="st0" d="M54.7,15.4c0-2.1-1.7-3.8-3.8-3.8c-2.1,0-3.8,1.7-3.8,3.8v40.2c0,2.1,1.7,3.8,3.8,3.8c2.1,0,3.8-1.7,3.8-3.8
		V15.4z"/>
	<path class="st0" d="M75.5,29.7c0-2.1-1.7-3.8-3.8-3.8c-2.1,0-3.8,1.7-3.8,3.8V48c0,2.1,1.7,3.8,3.8,3.8c2.1,0,3.8-1.7,3.8-3.8
		V29.7z"/>
	<path class="st0" d="M96.3,40.1c0-2.1-1.7-3.8-3.8-3.8c-2.1,0-3.8,1.7-3.8,3.8V48c0,2.1,1.7,3.8,3.8,3.8c2.1,0,3.8-1.7,3.8-3.8
		V40.1z"/>
	<path class="st0" d="M117.1,29.7c0-2.1-1.7-3.8-3.8-3.8c-2.1,0-3.8,1.7-3.8,3.8V48c0,2.1,1.7,3.8,3.8,3.8c2.1,0,3.8-1.7,3.8-3.8
		V29.7z"/>
	<path class="st0" d="M137.9,15.4c0-2.1-1.7-3.8-3.8-3.8c-2.1,0-3.8,1.7-3.8,3.8v40.2c0,2.1,1.7,3.8,3.8,3.8c2.1,0,3.8-1.7,3.8-3.8
		V15.4z"/>
	<path class="st0" d="M158.7,29.7c0-2.1-1.7-3.8-3.8-3.8c-2.1,0-3.8,1.7-3.8,3.8V48c0,2.1,1.7,3.8,3.8,3.8c2.1,0,3.8-1.7,3.8-3.8
		V29.7z"/>
	<path class="st0" d="M179.5,40.1c0-2.1-1.7-3.8-3.8-3.8c-2.1,0-3.8,1.7-3.8,3.8V48c0,2.1,1.7,3.8,3.8,3.8c2.1,0,3.8-1.7,3.8-3.8
		V40.1z"/>
	<polygon class="st0" points="175.1,98.8 175.1,99.3 173.8,99.3 173.8,102.8 173.2,102.8 173.2,99.3 171.9,99.3 171.9,98.8 	"/>
	<polygon class="st0" points="175.4,98.8 176.3,98.8 177.5,102.1 177.5,102.1 178.7,98.8 179.5,98.8 179.5,102.8 178.9,102.8 
		178.9,99.6 178.9,99.6 177.7,102.8 177.2,102.8 176,99.6 176,99.6 176,102.8 175.4,102.8 	"/>
</g>
</svg>
