<?xml version="1.0" encoding="utf-8"?>
<!-- Generator: Adobe Illustrator 25.2.0, SVG Export Plug-In . SVG Version: 6.00 Build 0)  -->
<svg version="1.1" id="Layer_1" xmlns="http://www.w3.org/2000/svg" xmlns:xlink="http://www.w3.org/1999/xlink" x="0px" y="0px"
	 viewBox="0 0 185 47" style="enable-background:new 0 0 185 47;" xml:space="preserve">
<style type="text/css">
	.st0{fill:#FFFFFF;}
</style>
<path class="st0" d="M46.5,17.6c-4.3,0-7.6,2.8-7.6,6.5c0,3.6,3.3,6.4,7.6,6.4s7.6-2.8,7.6-6.4C54.2,20.4,50.8,17.6,46.5,17.6
	 M46.5,34.8c-6.7,0-12-4.7-12-10.8c0-6.1,5.3-10.8,12-10.8c6.7,0,12,4.8,12,10.8C58.5,30.1,53.2,34.8,46.5,34.8 M89.3,34.8
	c-2.4,0-4.4-2-4.4-4.4v-9c0-2.1-1.9-3.8-4.2-3.8c-2.3,0-4.1,1.7-4.1,3.8v13.4c-2.4,0-4.4-1.9-4.4-4.3v-9.1c0-2.1-1.8-3.8-4.2-3.8
	c-2.3,0-4.1,1.7-4.1,3.8v9c0,2.4-1.9,4.4-4.4,4.4V21.4c0-4.5,3.8-8.2,8.5-8.2c2.5,0,4.8,1,6.3,2.7c1.5-1.7,3.8-2.7,6.3-2.7
	c4.7,0,8.5,3.7,8.5,8.2L89.3,34.8z M103.4,34.8c-1.1,0-2.2-0.1-3.2-0.3c-2.3-0.6-3.6-3-3-5.2c0.1-0.3,0.2-0.6,0.3-0.8l0.1,0
	c1.2,1.3,3.2,2,5.9,2c4,0,7.1-2.8,7.1-6.3c0-3.7-3.1-6.6-7.1-6.6c-3.8,0-7.5,2.1-7.5,6.7v14.1c0,2.4-2,4.3-4.4,4.3V24.2
	c0-6.3,5-11,11.9-11c3,0,5.9,1.1,8,3.1c2.2,2,3.4,4.8,3.4,7.8C114.9,30.1,109.9,34.8,103.4,34.8 M134.4,9.1h-9.3v25.7h-0.2
	c-2.3,0-4.2-2-4.2-4.3V9.1h-9.3c-2.4,0-4.2-1.9-4.2-4.3h31.5C138.7,7.1,136.9,9.1,134.4,9.1 M162,9.3l-6.2,13.6h11.7l-6.2-13.6
	L162,9.3z M171.7,32.1l-2.3-5h-15.5l-2.3,5.1c-1.1,2-3.9,2.7-6.1,2.7l12.6-27.6c0.7-1.6,2-2.5,3.5-2.5c1.4,0,2.8,0.9,3.5,2.5
	l12.4,27.3C175.1,34.8,172.6,34.1,171.7,32.1 M29.7,12.9c-2.5-2.6-6-4.1-9.6-4.1c-6.7,0-12.2,4.9-12.2,10.9c0,6,5.5,11,12.2,11
	c3.2,0,6.3-1.2,8.6-3.2c1.6-1.3,4-1.2,5.5,0.1c-1.2,1.8-2.8,3.4-4.7,4.6c-2.7,1.8-6,2.7-9.3,2.7C11,34.9,3.6,28,3.6,19.7
	c0-8.4,7.4-15.2,16.5-15.2c6.5,0,12.4,3.6,15,9C33.4,14.6,31.1,14.4,29.7,12.9 M180,31.3c-0.1,0-0.1,0.1-0.2,0.1
	c0,0,0.1,0.1,0.6,0.7l-0.1,0.1c-0.2,0.2-0.5,0.1-0.6,0c-0.2-0.2-0.3-0.4-0.5-0.6h-0.6v-0.2c0-0.2,0.2-0.4,0.4-0.4h0.3
	c0.2,0,0.3,0,0.4-0.1c0.1,0,0.1-0.1,0.1-0.2c0-0.1,0-0.2-0.5-0.2h-0.8v1.4c0,0.2-0.2,0.4-0.4,0.4H178v-2c0-0.2,0.2-0.4,0.4-0.4h0.9
	c1,0,1.1,0.6,1.1,0.8C180.3,30.9,180.2,31.1,180,31.3 M179.1,29.5c-1,0-1.8,0.7-1.8,1.6c0,0.9,0.8,1.6,1.8,1.6c1,0,1.8-0.7,1.8-1.6
	C181,30.2,180.1,29.5,179.1,29.5 M179.1,33.2c-1.3,0-2.3-0.9-2.3-2.1c0-1.1,1-2.1,2.3-2.1c1.3,0,2.3,0.9,2.3,2.1
	C181.4,32.2,180.4,33.2,179.1,33.2 M140.1,4.8v25.8c0,2.3,2,4.2,4.3,4.2V9C144.5,6.7,142.5,4.8,140.1,4.8"/>
</svg>
