<?xml version="1.0" encoding="utf-8"?>
<!-- Generator: Adobe Illustrator 25.2.0, SVG Export Plug-In . SVG Version: 6.00 Build 0)  -->
<svg version="1.1" id="Layer_1" xmlns="http://www.w3.org/2000/svg" xmlns:xlink="http://www.w3.org/1999/xlink" x="0px" y="0px"
	 viewBox="0 0 185 45" style="enable-background:new 0 0 185 45;" xml:space="preserve">
<style type="text/css">
	.st0{fill:#FFFFFF;}
</style>
<g>
	<path class="st0" d="M5.7,6.7h13.7V13h-5.5v6h5.1v6h-5.1v7h6v6.3H5.7V6.7z"/>
	<path class="st0" d="M41.5,20.5h-8.2V15c0-1.6-0.1-2.6-0.3-3c-0.2-0.4-0.6-0.6-1.2-0.6c-0.7,0-1.1,0.2-1.3,0.7
		c-0.2,0.5-0.3,1.5-0.3,3.1v14.7c0,1.5,0.1,2.5,0.3,3s0.6,0.7,1.2,0.7c0.6,0,1-0.2,1.2-0.7c0.2-0.5,0.3-1.6,0.3-3.3v-4h8.2v1.2
		c0,3.3-0.2,5.6-0.7,7c-0.5,1.4-1.5,2.6-3.1,3.6S34.2,39,31.9,39c-2.4,0-4.4-0.4-6-1.3s-2.6-2.1-3.1-3.6s-0.8-3.9-0.8-7v-9.2
		c0-2.3,0.1-4,0.2-5.1c0.2-1.1,0.6-2.2,1.4-3.3s1.8-1.9,3.2-2.5s3-0.9,4.7-0.9c2.4,0,4.4,0.5,6,1.4c1.6,0.9,2.6,2.1,3.1,3.5
		c0.5,1.4,0.7,3.6,0.7,6.5V20.5z"/>
	<path class="st0" d="M53.9,22.6v5.4H43.5v-5.4H53.9z"/>
	<path class="st0" d="M75.4,20.5h-8.2V15c0-1.6-0.1-2.6-0.3-3c-0.2-0.4-0.6-0.6-1.2-0.6c-0.7,0-1.1,0.2-1.3,0.7
		c-0.2,0.5-0.3,1.5-0.3,3.1v14.7c0,1.5,0.1,2.5,0.3,3s0.6,0.7,1.2,0.7c0.6,0,1-0.2,1.2-0.7c0.2-0.5,0.3-1.6,0.3-3.3v-4h8.2v1.2
		c0,3.3-0.2,5.6-0.7,7c-0.5,1.4-1.5,2.6-3.1,3.6S68.2,39,65.8,39c-2.4,0-4.4-0.4-6-1.3s-2.6-2.1-3.1-3.6s-0.8-3.9-0.8-7v-9.2
		c0-2.3,0.1-4,0.2-5.1c0.2-1.1,0.6-2.2,1.4-3.3s1.8-1.9,3.2-2.5s3-0.9,4.7-0.9c2.4,0,4.4,0.5,6,1.4c1.6,0.9,2.6,2.1,3.1,3.5
		c0.5,1.4,0.7,3.6,0.7,6.5V20.5z"/>
	<path class="st0" d="M96,21.5v6.3c0,2.3-0.1,4-0.4,5.1s-0.7,2.1-1.5,3s-1.8,1.6-3,2.1s-2.6,0.7-4.2,0.7c-1.7,0-3.2-0.2-4.4-0.6
		s-2.2-1-2.8-1.7s-1.1-1.7-1.4-2.8s-0.4-2.8-0.4-5v-6.6c0-2.4,0.3-4.3,0.8-5.6c0.5-1.4,1.5-2.4,2.8-3.3s3.1-1.2,5.2-1.2
		c1.8,0,3.3,0.3,4.6,0.8s2.2,1.2,2.9,2.1c0.7,0.8,1.2,1.7,1.4,2.6S96,19.7,96,21.5z M88.1,19.5c0-1.3-0.1-2.2-0.2-2.5
		c-0.1-0.3-0.4-0.5-0.9-0.5s-0.8,0.2-0.9,0.5c-0.2,0.3-0.2,1.2-0.2,2.5v11.7c0,1.2,0.1,2,0.2,2.4s0.5,0.6,0.9,0.6
		c0.5,0,0.8-0.2,0.9-0.5s0.2-1.1,0.2-2.2V19.5z"/>
	<path class="st0" d="M116.7,12.4v25.9h-8l0.1-2.2c-0.5,0.9-1.2,1.5-2,2c-0.8,0.4-1.7,0.7-2.8,0.7c-1.2,0-2.2-0.2-2.9-0.6
		s-1.4-1-1.7-1.7s-0.6-1.4-0.7-2.2s-0.1-2.2-0.1-4.5V12.4h7.9V30c0,2,0.1,3.2,0.2,3.6s0.5,0.6,1,0.6c0.6,0,0.9-0.2,1-0.6
		s0.2-1.6,0.2-3.8V12.4H116.7z"/>
	<path class="st0" d="M127.5,12.4l-0.1,2.4c0.6-1,1.3-1.7,2.1-2.1c0.8-0.5,1.8-0.7,2.9-0.7c1.4,0,2.5,0.3,3.3,1
		c0.9,0.6,1.4,1.4,1.7,2.4c0.2,1,0.4,2.6,0.4,4.9v18.2h-7.9V20.4c0-1.8-0.1-2.9-0.2-3.3s-0.4-0.6-1-0.6c-0.6,0-0.9,0.2-1.1,0.7
		s-0.2,1.7-0.2,3.6v17.5h-7.9V12.4H127.5z"/>
	<path class="st0" d="M157.9,22.2h-7.4v-3c0-1-0.1-1.7-0.3-2.1s-0.5-0.6-0.9-0.6s-0.8,0.2-0.9,0.5c-0.2,0.3-0.2,1.1-0.2,2.2v12.2
		c0,0.9,0.1,1.6,0.4,2.1s0.6,0.7,1,0.7c0.5,0,0.9-0.2,1.1-0.7s0.3-1.4,0.3-2.7v-3.1h7c0,2.1-0.1,3.6-0.2,4.7s-0.6,2.1-1.3,3.2
		s-1.7,1.9-2.9,2.5s-2.6,0.8-4.4,0.8c-2.2,0-4-0.4-5.3-1.1s-2.2-1.8-2.8-3.2s-0.8-3.3-0.8-5.8v-7.4c0-2.2,0.2-3.9,0.7-5
		c0.4-1.1,1.4-2.1,2.8-3s3.2-1.3,5.3-1.3c2.1,0,3.8,0.4,5.3,1.3c1.5,0.9,2.4,2,2.9,3.3S157.9,19.7,157.9,22.2z"/>
	<path class="st0" d="M168.3,6.7v4.1h-8.1V6.7H168.3z M168.3,12.4v25.9h-8.1V12.4H168.3z"/>
	<path class="st0" d="M179.3,6.7v31.6h-8.1V6.7H179.3z"/>
</g>
</svg>
