<?xml version="1.0" encoding="utf-8"?>
<!-- Generator: Adobe Illustrator 25.2.0, SVG Export Plug-In . SVG Version: 6.00 Build 0)  -->
<svg version="1.1" id="Layer_1" xmlns="http://www.w3.org/2000/svg" xmlns:xlink="http://www.w3.org/1999/xlink" x="0px" y="0px"
	 viewBox="0 0 185 115" style="enable-background:new 0 0 185 115;" xml:space="preserve">
<style type="text/css">
	.st0{fill:#FFFFFF;}
</style>
<g>
	<path class="st0" d="M180.1,55.7v-3.1h-3.8v-4.8l-0.1,0l-3.6,1.1l-0.1,0v3.6h-5.7v-2c0-0.9,0.2-1.7,0.6-2.1c0.4-0.5,1-0.7,1.8-0.7
		c0.5,0,1.1,0.1,1.7,0.4l0.1,0.1V45l-0.1,0c-0.5-0.2-1.2-0.3-2.1-0.3c-1.1,0-2.1,0.2-3,0.7c-0.9,0.5-1.6,1.2-2.1,2
		c-0.5,0.9-0.7,1.9-0.7,3v2.2h-2.7v3.1h2.7v13h3.8v-13h5.7V64c0,3.4,1.6,5.1,4.8,5.1c0.5,0,1.1-0.1,1.6-0.2c0.6-0.1,1-0.2,1.2-0.4
		l0.1,0v-3.1l-0.2,0.1c-0.2,0.1-0.5,0.3-0.8,0.3c-0.3,0.1-0.6,0.1-0.8,0.1c-0.7,0-1.3-0.2-1.6-0.6c-0.3-0.4-0.5-1.1-0.5-2.1v-7.6
		H180.1L180.1,55.7z M151.8,66c-1.4,0-2.5-0.5-3.3-1.4c-0.8-0.9-1.2-2.2-1.2-3.9c0-1.7,0.4-3,1.2-4c0.8-0.9,1.9-1.4,3.2-1.4
		c1.3,0,2.4,0.4,3.1,1.3c0.8,0.9,1.1,2.2,1.1,3.9c0,1.7-0.4,3.1-1.1,4C154.2,65.5,153.2,66,151.8,66 M151.9,52.3
		c-2.6,0-4.8,0.8-6.3,2.3c-1.5,1.5-2.3,3.6-2.3,6.3c0,2.5,0.7,4.5,2.2,6c1.5,1.5,3.5,2.2,5.9,2.2c2.6,0,4.6-0.8,6.1-2.3
		c1.5-1.5,2.3-3.6,2.3-6.2c0-2.6-0.7-4.6-2.1-6.1C156.4,53,154.4,52.3,151.9,52.3 M137.3,52.3c-1.8,0-3.3,0.5-4.4,1.4
		c-1.1,0.9-1.7,2.1-1.7,3.6c0,0.8,0.1,1.4,0.4,2c0.2,0.6,0.6,1.1,1.1,1.5c0.5,0.4,1.3,0.9,2.3,1.3c0.9,0.4,1.5,0.7,1.9,0.9
		c0.4,0.2,0.7,0.5,0.9,0.7c0.2,0.2,0.2,0.5,0.2,0.9c0,1.1-0.8,1.6-2.5,1.6c-0.6,0-1.3-0.1-2.1-0.4c-0.8-0.2-1.5-0.6-2.1-1.1
		l-0.2-0.1v3.7l0.1,0c0.5,0.2,1.2,0.5,2,0.6c0.8,0.2,1.5,0.3,2.2,0.3c2,0,3.5-0.5,4.7-1.4c1.2-0.9,1.7-2.1,1.7-3.6
		c0-1.1-0.3-2-0.9-2.8c-0.6-0.7-1.7-1.4-3.2-2c-1.2-0.5-2-0.9-2.3-1.2c-0.3-0.3-0.5-0.7-0.5-1.2c0-0.5,0.2-0.8,0.6-1.1
		c0.4-0.3,0.9-0.5,1.6-0.5c0.6,0,1.3,0.1,1.9,0.3c0.6,0.2,1.2,0.5,1.7,0.8l0.2,0.1V53l-0.1,0c-0.4-0.2-1-0.3-1.7-0.5
		C138.4,52.3,137.8,52.3,137.3,52.3 M121.1,66c-1.4,0-2.5-0.5-3.3-1.4c-0.8-0.9-1.2-2.2-1.2-3.9c0-1.7,0.4-3,1.2-4
		c0.8-0.9,1.9-1.4,3.2-1.4c1.3,0,2.4,0.4,3.1,1.3c0.8,0.9,1.1,2.2,1.1,3.9c0,1.7-0.4,3.1-1.1,4C123.6,65.5,122.5,66,121.1,66
		 M121.3,52.3c-2.6,0-4.8,0.8-6.3,2.3c-1.5,1.5-2.3,3.6-2.3,6.3c0,2.5,0.7,4.5,2.2,6c1.5,1.5,3.5,2.2,5.9,2.2c2.6,0,4.6-0.8,6.1-2.3
		c1.5-1.5,2.3-3.6,2.3-6.2c0-2.6-0.7-4.6-2.1-6.1C125.8,53,123.8,52.3,121.3,52.3 M107,55.4v-2.8h-3.8v16.1h3.8v-8.2
		c0-1.4,0.3-2.5,0.9-3.4c0.6-0.9,1.4-1.3,2.4-1.3c0.3,0,0.7,0.1,1.1,0.2c0.4,0.1,0.7,0.2,0.9,0.4l0.2,0.1v-3.8l-0.1,0
		c-0.4-0.1-0.8-0.2-1.5-0.2c-0.9,0-1.8,0.3-2.5,0.9C107.8,53.8,107.4,54.5,107,55.4L107,55.4z M96.5,52.3c-1.7,0-3.3,0.4-4.6,1.1
		c-1.3,0.7-2.3,1.8-3,3.1c-0.7,1.3-1,2.9-1,4.6c0,1.5,0.3,2.9,1,4.1c0.7,1.2,1.6,2.2,2.8,2.9c1.2,0.7,2.6,1,4.1,1
		c1.8,0,3.3-0.4,4.6-1.1l0,0v-3.5l-0.2,0.1c-0.6,0.4-1.2,0.7-1.8,1c-0.7,0.2-1.3,0.4-1.8,0.4c-1.5,0-2.7-0.5-3.5-1.4
		c-0.9-0.9-1.3-2.2-1.3-3.8c0-1.6,0.5-2.9,1.4-3.9c0.9-1,2.1-1.5,3.5-1.5c1.2,0,2.5,0.4,3.6,1.3l0.2,0.1v-3.6l-0.1,0
		c-0.4-0.2-1-0.4-1.7-0.6C97.8,52.3,97.1,52.3,96.5,52.3 M85.2,52.6h-3.8v16.1h3.8C85.2,68.7,85.2,52.6,85.2,52.6z M83.3,45.8
		c-0.6,0-1.2,0.2-1.6,0.6c-0.4,0.4-0.7,0.9-0.7,1.6c0,0.6,0.2,1.1,0.7,1.5c0.4,0.4,1,0.6,1.6,0.6c0.6,0,1.2-0.2,1.6-0.6
		c0.4-0.4,0.7-0.9,0.7-1.5c0-0.6-0.2-1.1-0.7-1.6C84.5,46,84,45.8,83.3,45.8 M73.9,51.5v17.2h3.9V46.3h-5.3l-6.8,16.6l-6.6-16.6
		h-5.6v22.4h3.6V51.5h0.1l6.9,17.2h2.7l6.8-17.2L73.9,51.5L73.9,51.5z"/>
	<path class="st0" d="M22.7,56.6H4.9V38.8h17.8V56.6z"/>
	<path class="st0" d="M42.3,56.6H24.5V38.8h17.8V56.6L42.3,56.6z"/>
	<path class="st0" d="M22.7,76.2H4.9V58.4h17.8V76.2z"/>
	<path class="st0" d="M42.3,76.2H24.5V58.4h17.8V76.2L42.3,76.2z"/>
</g>
</svg>
